PathFileType	4	(X/Y/Z)	markers_0_video_left_upright_43fa9c767a284c608474a81e5a60fe99.trc
DataRate	CameraRate	NumFrames	NumMarkers	Units	OrigDataRate	OrigDataStartFrame	OrigNumFrames
12.500000	12.500000	4	42	mm	12.500000	1	3015
Frame#	Time	Nose			LEye			REye			LEar			REar			LShoulder			RShoulder			LElbow			RElbow			LHip			RHip			LKnee			RKnee			LAnkle			RAnkle			LBigToe			LSmallToe			LHeel			RBigToe			RSmallToe			RHeel			RIndex			RPinky			RWrist			LIndex			LPinky			LWrist			LOlecranon			ROlecranon			LCubitalFossa			RCubitalFossa			LAcromion			RAcromion			Neck			PelvisCenter			Thorax			c_spine0			c_spine1			c_spine2			c_spine3			c_neck			c_head
		X1	Y1	Z1	X2	Y2	Z2	X3	Y3	Z3	X4	Y4	Z4	X5	Y5	Z5	X6	Y6	Z6	X7	Y7	Z7	X8	Y8	Z8	X9	Y9	Z9	X10	Y10	Z10	X11	Y11	Z11	X12	Y12	Z12	X13	Y13	Z13	X14	Y14	Z14	X15	Y15	Z15	X16	Y16	Z16	X17	Y17	Z17	X18	Y18	Z18	X19	Y19	Z19	X20	Y20	Z20	X21	Y21	Z21	X22	Y22	Z22	X23	Y23	Z23	X24	Y24	Z24	X25	Y25	Z25	X26	Y26	Z26	X27	Y27	Z27	X28	Y28	Z28	X29	Y29	Z29	X30	Y30	Z30	X31	Y31	Z31	X32	Y32	Z32	X33	Y33	Z33	X34	Y34	Z34	X35	Y35	Z35	X36	Y36	Z36	X37	Y37	Z37	X38	Y38	Z38	X39	Y39	Z39	X40	Y40	Z40	X41	Y41	Z41	X42	Y42	Z42

1	0.000000	-945.008324	1224.813556	-9.547986	-974.582889	1280.570403	43.017225	-971.997151	1291.942776	-47.704986	-892.614418	1381.229263	120.730859	-884.570943	1407.156062	-90.910115	-613.565069	1371.376674	234.084821	-643.579704	1303.081662	-213.013401	-396.454816	1091.875954	368.500769	-501.969518	975.776120	-344.027536	6.480721	1030.564947	107.832702	4.230093	1029.769890	-108.115454	416.856153	694.571988	175.813165	528.414404	925.649094	-124.602119	904.021189	544.006430	232.497125	1039.006570	952.447114	-109.830041	791.148161	314.551496	209.307383	829.832750	349.210434	302.796654	982.046006	543.373957	243.381996	1047.835201	695.789849	-128.765646	1082.298070	758.454501	-207.792494	1110.914403	986.905958	-103.632679	-844.821816	751.524124	-18.543428	-763.567218	707.539766	-45.122820	-734.997377	798.943543	-169.042953	-739.413651	784.528617	99.086431	-656.871757	753.856442	129.721785	-629.194631	879.734871	229.187652	-366.537065	1065.567885	384.484944	-477.027540	943.648826	-362.840826	-437.026373	1097.588591	336.265265	-533.563668	991.400803	-310.316117	-674.853298	1370.259939	240.591471	-702.938851	1308.000191	-212.765869	-694.318996	1339.066351	13.860172	5.355407	1030.167418	-0.141376	-688.896075	1339.130065	13.912801	-15.266127	1104.770642	-0.207053	-156.537564	1157.875594	1.023697	-280.813520	1246.933668	1.297785	-512.482946	1343.766273	4.514812	-652.588418	1336.199512	14.738425	-819.510820	1347.666999	11.225407
2	0.080000	-1000.122964	1250.475161	17.953242	-1026.330119	1305.891427	72.842732	-1024.770216	1320.048304	-17.708373	-938.524863	1400.507103	152.095279	-932.898562	1432.793364	-58.963697	-655.888609	1385.391279	262.706967	-694.513079	1319.752590	-188.212250	-434.602516	1104.116549	391.275585	-555.780373	992.086222	-324.853171	-40.157537	1043.018003	123.437890	-45.544850	1042.588885	-89.081160	365.800586	697.791843	167.326339	481.185415	957.238775	-122.775204	863.647468	583.051693	202.224097	985.824605	1040.536154	-128.569296	785.715431	340.289991	163.143051	820.871983	373.595293	258.633748	941.248074	592.079784	212.021327	1022.316726	788.142451	-153.200435	1047.514505	855.088972	-232.436985	1053.474622	1083.944519	-124.561955	-901.162507	774.908059	-2.464935	-822.782490	725.575633	-28.508219	-789.211123	817.326123	-151.028045	-787.845803	803.771729	129.445914	-702.595469	772.459510	155.214101	-670.529484	895.761305	255.125902	-404.102477	1077.465651	406.347766	-531.052873	959.757539	-344.318819	-476.062335	1110.470516	359.850285	-587.123763	1007.874040	-290.593234	-716.853254	1384.375942	270.442902	-753.726852	1324.999272	-187.234488	-741.744718	1357.171363	40.864226	-42.851194	1042.803444	17.178365	-735.290053	1354.687607	41.604207	-62.342411	1116.961016	17.527811	-203.444957	1171.627446	20.224288	-327.259927	1262.025825	21.778886	-559.025163	1360.248775	28.653615	-699.319716	1353.774257	41.084359	-869.019821	1367.362821	40.203834
3	0.160000	-1024.875129	1263.893699	26.820118	-1051.520274	1316.893058	83.589670	-1047.797907	1335.156828	-6.125130	-964.250243	1406.015519	168.280564	-953.664005	1447.558241	-39.681662	-685.818879	1382.564160	283.850038	-713.941595	1332.504144	-168.532105	-478.287010	1088.674173	399.906447	-582.193926	1010.117764	-317.830738	-73.178433	1011.970348	145.258854	-75.492379	1015.532303	-70.185030	350.350595	679.661677	170.473334	448.091858	897.685985	-120.283393	859.351072	614.737323	179.179746	937.668634	1048.193363	-124.737192	794.295902	372.508218	128.088097	830.320318	402.529864	224.332567	936.901964	629.055978	186.763108	1012.189911	811.632836	-180.418656	1026.430524	890.642500	-250.765166	997.573220	1102.025732	-115.585368	-948.017123	804.227901	-13.028254	-872.645936	751.058756	-40.349571	-828.808185	844.987073	-154.400566	-828.660231	806.420768	118.492171	-744.247129	778.449890	146.895890	-719.743388	897.357496	250.871794	-449.301542	1060.300837	413.987475	-559.117155	977.844968	-337.678303	-518.807928	1098.087671	368.404446	-613.374035	1025.891468	-283.747979	-746.617913	1383.056330	289.993047	-772.839649	1339.781845	-168.621422	-766.613650	1363.885010	60.334417	-74.335406	1013.751326	37.536912	-759.728781	1361.419087	60.685812	-90.860720	1088.320465	38.944301	-231.313045	1150.256449	41.934166	-352.543385	1247.575770	45.270749	-582.281940	1359.182391	52.136363	-724.615969	1359.478287	61.399740	-892.606926	1377.105599	57.138444
4	0.240000	-1048.149053	1254.806792	60.309357	-1074.372399	1306.781472	118.237167	-1070.550741	1327.052633	29.053466	-986.444196	1393.231855	204.741782	-975.632189	1439.413044	-1.982733	-711.271621	1370.692209	318.682445	-739.580033	1332.100399	-132.667624	-503.626061	1073.326281	434.577724	-592.347489	1017.922671	-289.690412	-102.491663	999.663288	166.976626	-109.547003	999.522836	-50.942810	348.718279	698.041209	164.128763	396.018003	819.460640	-131.390615	861.667560	651.179443	142.764592	858.126006	1042.921074	-152.170158	810.375284	406.855928	83.913371	849.520626	435.598643	179.400459	938.990195	670.136031	146.487302	1003.919288	839.266633	-201.015460	996.857818	918.603648	-272.065038	900.198142	1111.193227	-142.647519	-949.844433	798.973296	15.351520	-877.529774	747.195583	-11.888807	-834.441950	840.119504	-127.723880	-839.504673	794.718101	131.857062	-755.875566	770.233412	160.136235	-736.567657	879.047150	271.284063	-474.232923	1044.834199	448.939805	-567.874784	986.839126	-309.923894	-543.437526	1083.018158	401.860470	-624.378760	1031.910410	-255.329064	-771.856594	1370.590064	325.038512	-798.202401	1337.946029	-133.540474	-790.416492	1355.330095	95.534717	-106.019333	999.593062	58.016908	-785.029497	1354.268046	95.749019	-120.730780	1074.047505	58.447781	-259.394703	1138.960019	65.496020	-378.793521	1237.876642	73.030506	-606.852162	1351.380816	85.600444	-748.884044	1351.598660	96.341062	-915.013770	1366.524266	93.115679
